<?xml version="1.0" encoding="utf-8"?>
<!-- Generator: Adobe Illustrator 16.0.3, SVG Export Plug-In . SVG Version: 6.00 Build 0)  -->
<!DOCTYPE svg PUBLIC "-//W3C//DTD SVG 1.1//EN" "http://www.w3.org/Graphics/SVG/1.1/DTD/svg11.dtd">
<svg version="1.1" id="Layer_1" xmlns="http://www.w3.org/2000/svg" xmlns:xlink="http://www.w3.org/1999/xlink" x="0px" y="0px"
	 width="21.675px" height="21.675px" viewBox="0 0 21.675 21.675" enable-background="new 0 0 21.675 21.675" xml:space="preserve">
<path fill="none" stroke="#EDEDED" stroke-width="0.611" stroke-miterlimit="10" d="M18.154,16.127l-4.841-4.295 M18.208,6.379
	l-7.265,7.889L3.68,6.379 M3.734,16.127l4.838-4.295 M3.308,15.311V7.375c0-0.841,0.689-1.529,1.53-1.529h12.213
	c0.84,0,1.528,0.688,1.528,1.529v7.937c0,0.842-0.688,1.529-1.528,1.529H4.838C3.997,16.84,3.308,16.153,3.308,15.311z"/>
<path fill="none" stroke="#EDEDED" stroke-width="0.835" stroke-linejoin="round" stroke-miterlimit="10" d="M2.503,0.417H19.17
	c1.147,0,2.087,0.939,2.087,2.086V19.17c0,1.148-0.939,2.087-2.087,2.087H2.503c-1.148,0-2.086-0.938-2.086-2.087V2.503
	C0.417,1.356,1.355,0.417,2.503,0.417z"/>
</svg>
