<?xml version="1.0" encoding="utf-8"?>
<!-- Generator: Adobe Illustrator 16.0.3, SVG Export Plug-In . SVG Version: 6.00 Build 0)  -->
<!DOCTYPE svg PUBLIC "-//W3C//DTD SVG 1.1//EN" "http://www.w3.org/Graphics/SVG/1.1/DTD/svg11.dtd">
<svg version="1.1" id="Layer_1" xmlns="http://www.w3.org/2000/svg" xmlns:xlink="http://www.w3.org/1999/xlink" x="0px" y="0px"
	 width="21.675px" height="21.675px" viewBox="0 0 21.675 21.675" enable-background="new 0 0 21.675 21.675" xml:space="preserve">
<path fill="none" stroke="#EDEDED" stroke-width="0.835" stroke-linejoin="round" stroke-miterlimit="10" d="M5.912,6.557
	c-0.666,0-1.207-0.541-1.207-1.213c0-0.667,0.541-1.208,1.207-1.208c0.667,0.006,1.207,0.547,1.207,1.208
	C7.118,6.016,6.579,6.557,5.912,6.557z"/>
<rect x="4.54" y="8.522" fill="none" stroke="#EDEDED" stroke-width="0.835" stroke-linejoin="round" stroke-miterlimit="10" width="2.579" height="9.018"/>
<path fill="none" stroke="#EDEDED" stroke-width="0.835" stroke-linejoin="round" stroke-miterlimit="10" d="M17.133,17.54h-2.57
	v-5.571c0-0.654-0.188-1.113-0.987-1.113c-1.334,0-1.591,1.113-1.591,1.113v5.571H9.414V8.522h2.571v0.862
	c0.371-0.276,1.289-0.856,2.578-0.856c0.836,0,2.57,0.498,2.57,3.516V17.54z"/>
<path fill="none" stroke="#EDEDED" stroke-width="0.835" stroke-linejoin="round" stroke-miterlimit="10" d="M11.792,21.257H2.503
	c-1.148,0-2.086-0.938-2.086-2.086V2.504c0-1.148,0.938-2.087,2.086-2.087H19.17c1.148,0,2.087,0.939,2.087,2.087v16.667
	c0,1.147-0.938,2.086-2.087,2.086H11.792z"/>
</svg>
