<?xml version="1.0" encoding="utf-8"?>
<!-- Generator: Adobe Illustrator 16.0.3, SVG Export Plug-In . SVG Version: 6.00 Build 0)  -->
<!DOCTYPE svg PUBLIC "-//W3C//DTD SVG 1.1//EN" "http://www.w3.org/Graphics/SVG/1.1/DTD/svg11.dtd">
<svg version="1.1" id="Layer_1" xmlns="http://www.w3.org/2000/svg" xmlns:xlink="http://www.w3.org/1999/xlink" x="0px" y="0px"
	 width="21.675px" height="21.675px" viewBox="0 0 21.675 21.675" enable-background="new 0 0 21.675 21.675" xml:space="preserve">
<path fill="none" stroke="#EDEDED" stroke-width="0.835" stroke-linecap="round" stroke-linejoin="round" stroke-miterlimit="10" d="
	M17.633,5.641c0.064,0.105,0.133,0.204,0.094,0.323c-0.037,0.119-1.049,1.99-1.049,1.99c0.166,9.281-8.045,8.335-8.045,8.335
	c-1.476,0-2.913-0.42-4.153-1.217c-0.115-0.074-0.164-0.219-0.118-0.349c0.046-0.129,0.179-0.21,0.311-0.193
	c1.041,0.121,2.658-0.155,3.378-0.829c0,0-4.886-2.812-2.781-7.697C5.307,5.918,5.402,5.867,5.5,5.859
	c0.095-0.007,0.19,0.034,0.251,0.109c1.197,1.465,2.924,2.394,4.791,2.584c-0.009-0.09-0.012-0.179-0.012-0.269
	c0-1.601,1.301-2.901,2.899-2.901c0.742,0,1.461,0.289,1.998,0.797C15.428,6.179,17.531,5.478,17.633,5.641z"/>
<path fill="none" stroke="#EDEDED" stroke-width="0.835" stroke-linejoin="round" stroke-miterlimit="10" d="M2.503,0.417H19.17
	c1.147,0,2.088,0.939,2.088,2.086V19.17c0,1.148-0.94,2.087-2.088,2.087H2.503c-1.148,0-2.086-0.938-2.086-2.087V2.503
	C0.417,1.356,1.355,0.417,2.503,0.417z"/>
</svg>
