<?xml version="1.0" encoding="utf-8"?>
<!-- Generator: Adobe Illustrator 16.0.3, SVG Export Plug-In . SVG Version: 6.00 Build 0)  -->
<!DOCTYPE svg PUBLIC "-//W3C//DTD SVG 1.1//EN" "http://www.w3.org/Graphics/SVG/1.1/DTD/svg11.dtd">
<svg version="1.1" id="Layer_1" xmlns="http://www.w3.org/2000/svg" xmlns:xlink="http://www.w3.org/1999/xlink" x="0px" y="0px"
	 width="109.395px" height="27.301px" viewBox="0 0 109.395 27.301" enable-background="new 0 0 109.395 27.301"
	 xml:space="preserve">
<path fill="#FFFFFF" d="M73.59,8.09l0.199-1.49l0.295-1.386l0.494-0.695l0.293-1.484l0.594-1.188l0.789-0.301l1.281-0.098
	c0,0,2.073,0.297,2.371,0.297c0.294,0,2.641,0.103,2.641,0.103l1.875-0.301l0.987,0.594L85.9,3.925l1.184,2.481
	c0,0,0.295,1.185,0.496,1.484c0.195,0.297,1.184,4.143,1.479,4.339c0.296,0.198,3.435,1.885,3.435,1.885l2.665-0.497l0.393-1.585
	l1.285-0.497l1.969,1.285c0,0,1.972,5.058,2.174,5.356c0.188,0.299,0.275,3.248,0.275,3.248v1.686l1.381,1.486
	c0,0-0.684-0.977,0.298,0c1.481,1.487,11.723-7.609-0.106-17.202l-1.658-0.097l-1.72,0.02L97.854,6.38l-0.322-0.529l-0.019-1.704
	l1.68-0.373l0.748-0.236l0.625,0.17l1.452,1.684L103,6.586l1.02,0.942l3.826,4.704l1.117,3.204l-0.799,5.584l-2.865,3.924
	l-4.607,1.201l-5.482,0.646H79.447L68.734,26.43l-0.445-1.638l0.834-1.267l2.325-1.151l1.347,0.515l0.324-0.537l1.613-4.463
	l-1.003-3.57l0.044-0.84l0.57-1.289L73.59,8.09z"/>
<path fill="#000066" d="M60.917,19.861v5.246c-2.916,1.466-5.681,2.193-8.432,2.193c-7.627,0-12.212-4.533-12.212-10.219
	c0-6.148,5.222-11.247,11.924-11.247c1.674,0,2.893,0.292,4.2,0.729c0.951,0.295,1.531,0.657,2.117,0.657
	c0.508,0,0.653-0.877,0.727-1.386h0.73l0.654,7.074H59.75c-0.363-1.391-1.018-2.54-1.891-3.346c-1.386-1.389-3.28-2.121-5.443-2.121
	c-4.588,0-7.284,3.637-7.284,9.126c0,5.393,3.279,9.125,7.647,9.125c1.31,0,2.457-0.295,3.913-0.95v-5.39
	c0-1.76-0.295-2.42-2.746-2.42v-0.807h9.225v0.807C60.844,16.934,60.917,17.666,60.917,19.861 M35.537,11.228l0.001,15.708h-1.219
	l-15.64-16.218c0.072,0.438,0.072,0.801,0.072,1.241v9.856c0,3.072,0,4.17,2.77,4.17v0.806h-7.336v-0.806
	c2.75,0,2.749-1.314,2.749-4.17V10.567c0-1.662,0-3.491-2.894-3.491V6.273h6.894l12.874,13.295c-0.07-0.369-0.07-0.586-0.07-1.098
	v-7.243c0-2.907,0.07-4.152-2.695-4.152V6.273h7.333v0.803C35.682,7.076,35.537,8.25,35.537,11.228 M0,26.79v-0.806
	c1.75,0,2.988-0.145,2.988-2.709V9.783c0-2.636-0.949-2.707-2.988-2.707V6.273h10.325v0.803c-2.115,0-2.974,0.071-2.974,2.707
	v13.492c0,2.564,1.08,2.709,2.974,2.709v0.806H0z"/>
<path fill="#FF6600" d="M101.604,6.273c-0.15-0.293-0.429-0.438-0.64-0.438c-0.218-0.292-0.51-0.657-0.799-0.657
	c0.217,0,0.51-0.222,0.873-0.222c0.137,0.363,0.415,0.587,0.49,0.879L101.604,6.273z M109.395,17.301
	c0-3.221-1.309-6.441-3.645-8.762c-1.02-1.021-2.184-1.535-3.059-2.559c-0.434-0.437-0.799-0.877-1.087-1.464
	c-0.367-0.365-0.565-0.584-1.001-0.806c0.072,0.222,0.144,0.441,0.216,0.659h-0.072c-0.364,0-0.729-0.218-1.021-0.437l0.291-0.297
	c-0.068-0.142-0.291-0.142-0.437-0.142c-1.161-0.221-2.257,0.439-3.421,0.658v0.145c0.73,0.221,0.872,1.098,1.309,1.54h0.437
	c0.149,0,0.366,0.145,0.515,0.145c0-0.145-0.148-0.437-0.148-0.437c0.148-0.15,0.291-0.15,0.438,0
	c0.365,0.218,0.872-0.15,1.24,0.437c-0.438,0-0.875,0-1.24,0.221c0,0.072,0.219,0.218,0.146,0.363c-0.364-0.145-0.801,0-0.95-0.291
	l-0.069,0.072c0.436,0.514,1.092,0.952,1.745,1.173c0.946,0.148,1.729-0.297,2.677-0.075c3.348,1.611,5.685,5.392,5.685,9.2
	c0,5.394-3.058,7.588-5.029,7.588c-0.366,0-0.942-0.219-1.174-0.44c0.231-0.806,0.375-1.683,0.375-3
	c0-3.124-1.222-6.487-2.896-8.247c-0.799-0.802-1.674-1.462-2.621-1.462c-0.438,0-0.877,0-1.168,0.367
	c-0.363,0.293-0.582,0.875-0.51,1.241c-0.58,0.44-1.529,0.659-2.258,0.659c-0.802,0-1.799-0.292-2.746-1.025v-1.095
	c-0.22-0.072-0.945-0.51-0.582-0.859c0.217,0.075,0.362,0.196,0.436,0.273c-0.073-0.49-0.073-1.078-0.436-1.514
	c-0.146,0-0.363,0-0.582-0.149C88.534,8.76,88.315,8.465,88.315,8.1c0.219,0.365,0.579,0.223,0.8,0.439
	c-0.363-0.873-0.221-1.242-0.874-2.559C88.092,5.319,87.44,4.956,87,4.516c-0.22-0.147-0.291-0.365-0.582-0.365
	c-0.289-0.075-0.289-0.442-0.289-0.658c0.071,0,0.289,0.142,0.434,0.216c-0.434-1.024-0.727-2.118-1.674-2.685l-0.213,0.124H83.51
	c0.139-0.124,0.432-0.194,0.653-0.344c-0.222-0.219-0.362-0.294-0.805-0.294c-0.218,0.075-0.509,0.294-0.798,0.294h-0.073
	c0-0.219-0.067-0.511,0.362-0.656c-0.43-0.073-0.781-0.073-1.289,0c-0.072,0.362-0.293,0.584-0.293,0.876
	c-0.219,0.124-0.288,0.344-0.51,0.567c0-0.443,0.222-0.859,0.291-1.298c-0.291,0.075-0.652,0.292-0.801,0.292
	C79.668,0.293,78.938,0,78.646,0c0.436,0.293,0.216,0.804,0.291,1.148l-0.291-0.125c-0.075-0.291-0.436-0.513-0.51-0.875
	c-0.437,0-0.728,0.145-1.096,0.362v0.075c0.221,0,0.512,0.219,0.659,0.438c-0.51,0-0.873-0.219-1.383-0.219L76.24,0.732
	c-0.214,0.072-0.436,0.291-0.578,0.416c-0.511,0.443-0.874,0.808-1.097,1.462c0.147,0,0.366,0,0.44,0.075
	c-0.293,0.074-0.44,0.439-0.73,0.516v1.094c-0.217,0.221-0.51,0.439-0.655,0.883c-0.362,1.166-0.437,2.487-0.437,3.95
	C73.11,9.417,72.98,9.49,72.84,9.564v1.154c0,0,0.418-0.422,0.637-0.566v0.929c-0.293,0-0.496,0.367-0.496,0.584
	c0,0.292,0.063,0.587,0.063,0.878c0,0.146,0,0.146,0.067,0.292c0-0.146,0.147-0.292,0.366-0.362c0,0,0.144-0.15,0.434-0.15
	c-0.22,0.22-0.29,0.512-0.434,0.807l-0.219,0.219l-0.074,0.219c0.293,1.537,0.727,2.857,1.311,4.318
	c-0.584,0.951-1.236,2.76-1.654,4.514c-0.365-0.362-0.877-0.438-1.312-0.438c-0.438,0.076-0.871,0.222-1.166,0.659
	c-0.435-0.221-1.019-0.148-1.31,0.148c-0.655,0.582-0.655,0.877-0.655,1.316c-0.146,0.146-0.438,0.512-0.438,1.023
	c0,0.656,0.072,1.1,0.438,1.683h11.05c-0.07-0.218-0.218-0.513-0.363-0.657c-0.221-0.439-0.07-1.025-0.07-1.463
	c0.216-0.439,0.434-0.881,0.727-1.242c0.071-0.223,0-0.223,0.071-0.295l0.51-0.148c0.294,0,0.511-0.217,0.876-0.217
	c0.219,0.365,0.219-0.221,0.583-0.369c0.78-0.141,1.579,0,2.021,0.586c0,0.148,0.068,0.148,0.068,0.221H83.51
	c-0.44-0.221-0.949-0.438-1.44-0.221c0,0.221-0.071,0.221-0.071,0.443v0.361c0.289,0,0.489,0.295,0.779,0.441
	c0.145-0.219,0.582-0.441,0.871-0.441c0.367,0,0.877,0.223,0.877,0.807v0.803c0.291,0.295,0.654,0.365,1.023,0.516
	c-0.148,0.293-0.369,0.293-0.582,0.293h-0.588c-0.072-0.074-0.216-0.074-0.216-0.293c-0.221,0.293-0.362,0.582-0.515,0.876h8.503
	c-0.144-0.294-0.291-0.513-0.354-0.657c-0.135-0.439-0.135-1.025-0.135-1.463l0.782-1.1c0.437,0,0.806-0.143,1.604-0.221
	c0.143-0.217,0-0.365,0.653-0.365c0.507,0,0.875,0.148,1.019,0.221c0.074,0.145,0.074,0.145,0,0.294
	c-0.144,0.146-0.436-0.149-0.654-0.071c-0.146,0.143,0.074,0.217,0.074,0.362c0.145,0.146-0.654-0.146-0.654-0.146
	s-0.146,0.439-0.223,0.586c0,0,0.293,0.293,0.438,0.439c0.147,0.217-0.216,0.438-0.216,0.658c-0.146-0.074-0.438-0.297-0.438-0.221
	c-0.147,0.586,0,1.1-0.074,1.683h0.804l0.071-1.241c0.07-0.734,0.945-2.05,1.457-2.05c0.291,0,0.509,0.146,0.726,0.291
	c0.146,0.294,0.513,0.44,0.513,0.585c0,0.148-0.221,0.221-0.586,0.221c-0.144,0-0.144-0.221-0.361-0.365L96.16,24.67
	c0,0,0.51,0.438,0.51,0.729c0,0.365-0.072,0.516-0.289,0.734l-0.441-0.879c-0.219,0-0.581,0.439-0.581,0.66
	c0,0.293-0.149,0.439-0.149,0.876h4.518c0.512,0.001,0.949-0.146,1.449-0.437h0.861c1.818,0,3.28-0.514,4.588-1.83
	C108.375,22.768,109.396,19.988,109.395,17.301 M93.612,24.012l-0.731,0.072c0.293,0.146,0.293,0.512,0.293,0.586
	c0,0.217-0.147,0.438-0.293,0.584c-0.144-0.146-0.144-0.367-0.289-0.584c-0.147,0-0.219,0.361-0.219,0.512
	c0,0.658,0.289,1.172,0.508,1.608h0.655c-0.071-0.583-0.218-1.097-0.218-1.759C93.318,24.67,93.536,24.23,93.612,24.012
	 M84.016,24.887c0-0.291-0.215-0.363-0.506-0.363c-0.15,0-0.512,0.22-0.512,0.363c0,0.295-0.148,1.903-0.148,1.903h0.51
	C83.579,26.133,84.016,25.254,84.016,24.887 M82.42,24.814c-0.063,0,0.067,0.146-0.64-0.584c-0.146,0-0.364,0.439-0.364,0.584
	c0,0.584,0.145,1.393,0.364,1.976h0.576C82.356,26.133,82.42,25.398,82.42,24.814 M81.197,26.79
	c-0.365-0.657-0.439-1.683-0.439-1.903c0-0.363,0-0.875,0.223-1.242l-0.801,0.145c-0.219,0.295-0.295,0.441-0.295,0.586l0.365-0.145
	c0.071,0,0.147,0.145,0.215,0.293c-0.067,0.363-0.504,0.363-0.653,0.508c-0.22,0.732,0.438,1.176,0.51,1.759H81.197z M99.436,4.735
	h-0.801c-0.144-0.219-0.363,0-0.506,0c-0.149,0-0.224,0-0.513-0.219c0.438,0,0.655-0.221,1.019-0.365
	C98.928,4.369,99.219,4.442,99.436,4.735 M97.688,13.129c-0.511-0.146-0.798-0.366-1.239-0.366c-0.143,0-0.797,0.22-0.872,0.366
	c-0.219-0.294,0.144-0.877,0.438-1.024c0.291-0.148,0.434-0.073,0.582,0c0,0.438,0.509,0.218,0.798,0.368
	C97.545,12.689,97.616,12.835,97.688,13.129 M97.616,14.229c-0.438,0-0.51-0.074-0.801-0.074c-0.366,0-0.8,0.148-1.021,0.511
	c-0.143-0.292-0.074-0.437,0-0.657c0.221-0.217,0.586-0.515,0.875-0.515C97.178,13.493,97.616,13.859,97.616,14.229 M99.291,15.835
	c-0.582-0.364-1.455-0.579-1.967-0.579c-0.292,0-1.164,0.359-1.457,0.653l-0.146-0.653c0.439-0.078,0.439-0.441,0.729-0.441
	c0.221,0,0.51-0.078,0.729-0.078c0.218,0,0.367-0.143,0.438-0.143c0.363,0,0.22,0.366,0.438,0.366c0.217,0,0.365-0.146,0.508-0.146
	C98.928,14.814,99.219,15.398,99.291,15.835 M99.512,17.447c-0.512,0-1.021-0.146-1.092-0.364c-0.148-0.149,0-0.44-0.365-0.44
	c-0.148,0-0.366,0.217-0.366,0.217c-0.144,0.074-0.582-0.217-0.582,0c0,0.367-0.291,0.515-0.657,0.515c-0.143,0-0.289,0-0.434-0.073
	v-0.732c0.943,0,0.875-0.295,1.309-0.295c0.292,0,0.512,0.15,0.73,0.15c0.365,0,0.145-0.15,0.508-0.15
	c0.365,0,0.512,0.295,0.729,0.369C99.291,16.859,99.512,17.152,99.512,17.447 M98.855,19.053c-0.221-0.07-0.727-0.142-0.727-0.363
	c0-0.291-0.149-0.365-0.513-0.365c-0.292,0-0.51,0.074-0.946,0.217c0,0-0.221-0.287-0.289-0.583c0.143-0.073,0.726-0.22,1.015-0.22
	c0.511,0,1.024,0,1.024,0.22C98.42,18.254,98.855,18.324,98.855,19.053 M86.129,7.589l-0.146,0.732L85.4,8.465l0.365-1.606
	C85.911,7.149,86.129,7.443,86.129,7.589 M100.238,21.594c0,0.442,0,0.588-0.221,0.953l-0.437-0.658
	c0.146-0.221,0.146-0.512,0.368-0.877L100.238,21.594z M98.491,20.645c-0.512,0-0.22-1.004-1.313-1.004
	c-0.219,0-0.362,0.348-0.654,0.42l0.074-0.492c0-0.15,0.072-0.442,0.361-0.586c0.586,0,0.437,0.219,0.877,0.371
	c0.219,0.064,0.363,0.215,0.655,0.215V20.645z M93.901,16.496c-0.651-0.367-1.021-1.025-1.603-1.682
	c0.582,0,0.728,0.584,1.166,0.656c0.147,0.145,0.291,0.221,0.437,0.438V16.496z M87.656,11.081c-0.436,0-0.656-0.221-0.876-0.637
	c0-0.221-0.071-0.514,0-0.88c0.149,0.292,0.149,0.437,0.294,0.588c0.292-0.151,0.292,0.217,0.366,0.292
	C87.514,10.642,87.656,10.86,87.656,11.081 M99.727,23.57c-0.146,0.22-0.146,0.22-0.215,0.441c0-0.367-0.438-0.584-0.73-1.244
	l0.293-0.51c0.217,0.141,0.507,0.361,0.507,0.727c0,0-0.069,0.221,0,0.365C99.581,23.428,99.727,23.428,99.727,23.57 M98.271,21.449
	c0,0.294-0.072,0.365-0.143,0.732c-0.513-0.074-0.513-0.658-0.584-0.732c-0.367-0.438-0.875-0.072-1.238-0.072
	c-0.146-0.439,0.074-0.439,0.074-0.732c0.217,0,0.435-0.146,0.651,0c0.363-0.146,0.584,0.219,0.947,0.219
	C98.055,21.012,98.199,21.377,98.271,21.449 M94.557,18.471c0,0.293-0.146,0.512-0.07,0.807c-0.146-0.441-0.438-0.879-0.585-1.319
	c0-0.073-0.073-0.073,0.073-0.146l0.365,0.072C94.41,18.031,94.557,18.254,94.557,18.471 M88.17,12.689
	c-0.078,0.294-0.365,0-0.438,0h-0.657C87,12.543,86.93,12.473,86.93,12.323c0.291-0.07,0.511-0.218,0.727-0.07
	C87.805,12.473,87.947,12.689,88.17,12.689 M89.77,14.373c-0.219,0.221-0.799,0.292-1.235-0.07l0.582-0.295
	C89.334,14.229,89.625,14.303,89.77,14.373 M93.536,18.541c0,0.441-0.071,0.953-0.071,1.447c-0.215,0-0.215-0.127-0.215-0.42
	c-0.076-0.442-0.224-0.805-0.369-1.244c-0.145-0.586-0.508-1.098-0.801-1.756c-0.072-0.295-0.418-0.439-0.709-0.659
	c0.36,0,0.709,0,1.002,0.292c0,0.146,0.071,0.223,0.289,0.441c0.512,0,0.364,0.658,0.803,0.951
	c-0.215,0.219-0.291,0.364-0.438,0.508C93.25,18.254,93.465,18.324,93.536,18.541 M90.719,16.348c0,0.221-0.146,0.295-0.293,0.438
	c0,0-0.295-0.361-0.295-0.512c0-0.291,0-0.438,0.078-0.658C90.426,15.835,90.719,16.129,90.719,16.348 M97.545,22.984l-0.149,0.221
	c-0.363-0.221-0.58-0.29-1.015-0.29c0-0.296-0.221-0.657-0.365-0.657c-0.438,0-0.363,0.289-0.73,0.289l0.654-0.658
	c0.076-0.146,0.076-0.146,0.221-0.146c0.221,0.146,0.289,0.217,0.51,0.217c0,0.147,0,0.222-0.072,0.438
	c0.218,0.148,0.361-0.07,0.509,0.148C97.324,22.619,97.545,22.693,97.545,22.984 M91.662,17.958c0,0.144-0.215,0.296-0.291,0.296
	c0,0-0.361-0.369-0.433-0.736c-0.075-0.291,0.215-0.803,0.215-0.803l0.218,0.145c0.076,0.074,0,0.293,0.076,0.515
	C91.662,17.518,91.797,17.813,91.662,17.958 M85.983,10.86c-0.875-0.491-1.82-0.859-2.914-0.93c0,0.222,0,0.439-0.071,0.514
	c0.871,0.416,1.678,0.784,2.402,1.44v0.659c-0.725-0.731-1.531-1.462-2.479-1.683c-0.072,0.147-0.361,0.296-0.435,0.588
	c-0.489-0.367-1.071-0.729-1.655-0.806c-0.217,0-0.367-0.786-0.367-0.786c0.367-0.146,0.584-0.366,0.732-0.728h0.291
	c0.219,0,0.219-0.149,0.219-0.368c0-0.438-0.949-0.438-1.386-0.438c-0.51,0-0.874,0-1.164,0.217c-0.144,0-0.075,0.221-0.075,0.368
	l0.219,0.222c0.146,0,0.291-0.149,0.439-0.149c-0.072,0.438,0.071,0.657,0.51,0.877l-0.07,0.709c-0.879,0-1.463,0.371-2.116,0.663
	c-0.218-0.147-0.363-0.368-0.511-0.586c-0.873,0.294-2.401,1.463-2.401,1.463V11.59c0.653-0.583,1.528-0.872,2.185-1.221V9.856
	c-0.295-0.146-0.582,0-0.873,0c-0.658,0.074-1.312,0.367-1.75,0.709c0-0.196-0.074-0.489-0.074-0.489
	c0.804-0.44,1.824-0.806,2.771-0.659V9.128C77.336,8.979,77.336,8.76,77.19,8.76c-0.437-0.438-0.873-1.095-0.873-1.539l0.291-0.145
	c-0.146-0.437-0.291-1.533,0-1.898c-0.438-0.222-0.875-0.59-1.021-0.883c-0.146-0.364-0.291-0.586-0.365-1.023
	c0.22-0.439,0.365-0.587,0.582-1.026c0.146,0,0.365-0.07,0.436-0.218c0.368-0.072,0.587-0.437,1.021-0.217
	c0.291,0,0.584,0.145,0.802,0.217c0,0.148,0,0.218,0.147,0.369c0.436,0,0.436,0.436,0.651,0.804c0.22,0.071,0.438,0.071,0.585,0.071
	c0.438,0.147,0.801,0.147,0.949,0.363c0.583-0.363,1.164-0.434,1.818-0.363c0.072-0.22,0.205-0.513,0.272-0.875
	c0.073,0.213,0.073,0,0.217,0c0.294-0.221,0.654-0.586,1.165-0.441c0.294,0.22,0.807,0.072,1.098,0.441
	c0.211,0.288,0.359,0.727,0.58,1.096c-0.221,0.438,0,1.023-0.439,1.242l-0.432,0.443c-0.151,0-0.151,0.141-0.369,0.141
	c0.218,0.516,0.072,1.245-0.144,1.757c0.144-0.072,0.361-0.072,0.361-0.29v0.29v0.221c0,0.369-0.218,0.728-0.509,1.024
	c-0.146,0.438-0.506,1.021-1.018,1.095v0.147c1.09,0,1.969,0.292,2.985,0.805V10.86z M88.971,15.471l-0.365,0.145
	c-0.801,0-1.165-0.217-1.531-0.512c0.292,0,0.657-0.367,0.657-0.367C88.092,15.104,88.605,15.398,88.971,15.471 M86.93,13.791
	c-0.439,0-0.946,0.217-1.164-0.224c0.146-0.074,0.291-0.29,0.435-0.438L86.93,13.791z M92.881,20.645
	c0,0.367-0.437,0.805-0.582,1.099c0.146-0.366,0.146-1.099,0-1.099c-0.147-0.072-0.438,0-0.438-0.146
	c0-0.219,0.075-0.51,0.075-0.637c0-0.293-0.204-0.443-0.204-0.584c0-0.441,0.495-0.514,0.642-0.807
	c0.071,0.293,0.071,0.582,0.071,0.947c0,0.15,0.218,0.57,0,0.936C92.444,20.572,92.881,20.424,92.881,20.645 M91.227,19.861
	c0,0.418-0.288,0.783-0.363,1.224c0-0.44-0.072-0.806-0.366-1.097c0-0.127,0.222-0.127,0.076-0.348c0,0-0.442-0.223-0.442-0.515
	c0-0.29,0.295-0.508,0.442-0.728c0-0.074,0.29,0.143,0.29,0.584c0,0.07,0,0.295-0.072,0.436
	C90.719,19.641,91.227,19.641,91.227,19.861 M85.18,14.665c-0.363,0.071-0.654-0.292-1.017-0.437
	c-0.147-0.438-0.147-0.88-0.294-1.099c0.294,0.219,0.946,0.219,0.807,0.878C84.676,14.229,84.967,14.373,85.18,14.665
	 M87.221,16.715c-0.291,0-0.803,0-1.092-0.22c-0.437-0.222-0.58-0.366-0.803-0.587c0.293-0.217,0.657-0.217,0.803-0.293
	C86.418,15.908,86.709,16.424,87.221,16.715 M74.932,5.393l-0.508,0.15l0.07-0.365c0.145-0.222,0.219-0.443,0.438-0.662V5.393z
	 M84.307,15.615c-0.291,0.076-0.797,0.22-0.948-0.145c-0.437-0.656-0.218-1.242,0-1.756c0.151,0.44,0.22,0.879,0.29,1.246
	C83.725,15.256,84.163,15.398,84.307,15.615 M82.215,11.59c-0.072,0.441-0.217,1.099-0.654,1.392c0-0.293-0.145-0.439-0.293-0.659
	l-0.07,0.22c0,0.146-0.148,0.439-0.148,0.734c-0.143,0.071-0.434,0.216-0.728,0.071v-0.219c-0.071-0.147-0.071-0.44-0.071-0.586
	l-0.07-0.07c-0.219,0.07-0.219,0.216-0.219,0.362c-0.076,0.147-0.221,0.294-0.221,0.513c-0.293,0-0.439-0.071-0.658-0.219v-0.656
	c0-0.15,0-0.15-0.068-0.15l-0.367,0.366c-0.291-0.216-0.364-0.805-0.364-1.171c1.165-0.658,2.624-0.437,3.498-0.07
	C81.924,11.518,82.069,11.518,82.215,11.59 M85.983,17.518h-0.218c-0.799,0.295-1.459-0.217-2.117-0.658
	c0.367-0.145,0.877-0.217,1.318-0.217l0.213,0.439C85.4,17.152,85.766,17.373,85.983,17.518 M75.078,6.419l-0.365,0.439
	c0.075,0.73-0.219,1.241-0.219,1.901l-0.363-1.171c0.074-0.292,0.145-0.585,0.363-0.95L75.078,6.419z M82.561,15.908
	c-0.346-0.217-1-0.293-0.854-0.73c0.143-0.363,0.362-0.441,0.508-0.584C82.287,15.104,82.356,15.471,82.561,15.908 M89.334,23.428
	h-0.076c-0.142-0.223-0.215-0.443-0.363-0.443c0.222-0.803-0.217-1.461-0.36-2.121v-0.219c0.22,0.367,0.8,0.732,0.724,1.098
	C89.334,22.398,89.334,22.984,89.334,23.428 M87.656,20.645c-0.361,0-0.656,0-0.876-0.365c-0.071,0-0.218-0.219-0.29-0.074
	c-0.361,0.293-0.725-0.217-1.164-0.145c-0.218,0.219-0.438,0.363-0.801,0.438v-0.074c0-0.219,0.15-0.436,0.441-0.563
	c0.434,0.127,0.799-0.809,1.233-0.293c0.218,0.072,0.437,0.072,0.58,0.072C87.295,19.861,87.44,20.279,87.656,20.645 M80.979,14.736
	c0,0.52-0.073,1.172-0.583,1.393l-0.146-0.73C80.465,15.256,80.687,15.104,80.979,14.736 M83.432,17.958
	c-0.143,0.144-0.582,0.294-0.871,0.294c-0.418-0.367-0.711-0.805-1.145-1.393l1.145,0.223
	C82.777,17.227,83.215,17.738,83.432,17.958 M87.805,22.107c-0.291-0.219-0.73-0.219-0.875-0.584
	c-0.293-0.074-0.512-0.074-0.873-0.074c-0.291,0.074-0.656,0.074-0.948,0.074c-0.074,0,0-0.074-0.142-0.146
	c-0.441,0.146-0.879,0.146-1.318,0.583l0.367-0.875c0.291,0,0.51-0.147,0.66-0.147c0.291-0.074,0.504-0.074,0.725-0.074v0.074
	c0.8,0,1.749-0.074,2.331,0.586L87.805,22.107z M79.447,15.908c-0.434-0.438-0.801-0.805-0.801-1.243c0.216,0,0.436,0,0.654,0.149
	C79.301,15.178,79.447,15.471,79.447,15.908 M78.063,13.79l-0.218,0.946c-0.217-0.434-0.437-0.877-0.51-1.388L78.063,13.79z
	 M88.534,23.645c-0.071,0.146-0.219,0.586-0.292,0.879c-0.15-0.439-0.295-1.096-0.802-1.096c-0.074-0.295-0.146-0.443-0.44-0.66
	l-0.582-0.074c0.072,0.291,0.512,0.291,0.219,0.734c0.293,0.217,0.513,0.217,0.658,0.584c0.146,0.219,0,0.512,0.071,0.658
	l-0.437,0.217c0-0.363,0.07-1.098-0.439-1.242c-0.434,0.145-0.507-0.439-0.798-0.66c-0.144,0-0.144-0.365-0.366-0.217
	c-0.359,0.217-0.801,0-1.163,0.217l0.362-0.586c0.291-0.217,0.583-0.141,0.875-0.217l0.583-0.074c0.579,0,1.091,0.291,1.673,0.512
	c0.291,0.148,0.436,0.365,0.436,0.73C88.242,23.428,88.534,23.428,88.534,23.645 M82.705,20.205h-0.145
	c-0.073,0-0.563-0.217-0.711-0.344c-0.069-0.221-0.069-0.443-0.069-0.443h0.576L82.705,20.205z M77.117,14.959
	c-0.438-0.145-0.947-0.586-1.167-0.951c-0.146-0.293-0.217-0.66-0.217-0.878c0.294,0,0.508,0.219,0.585,0.364v0.074
	C76.68,14.008,77.041,14.373,77.117,14.959 M80.615,17.518c-0.074,0.44-0.294,0.584-0.654,1.101
	c-0.221,0.146-0.66,0.218-1.098,0.435c0.074-0.217,0.294-0.289,0.438-0.512c0.146-0.217,0.439-0.583,0.511-0.803
	C80.18,17.518,80.321,17.518,80.615,17.518 M85.983,24.67l-0.218,0.217c-0.217-0.217-0.073-0.803-0.439-0.875
	c-0.359,0-0.65-0.367-0.801-0.441l0.291-0.143c0,0,0.15-0.078,0.292,0c0.146,0.143,0.292,0.217,0.292,0.361
	c0.148,0.223,0.365,0,0.511,0.223C85.983,24.23,86.057,24.523,85.983,24.67 M79.301,16.934c-0.219,0.439-0.438,0.879-0.871,1.024
	c-0.219,0-0.584,0.144-1.021,0c0.22-0.146,0.437-0.22,0.729-0.44l0.578-0.584H79.301z M80.758,20.279
	c-0.293,0.219-0.508,0.219-0.873,0.145l-0.438-0.563h1.094L80.758,20.279z M75.442,14.736c-0.364,0.367-0.729,0.52-0.877,0.955
	c0-0.221-0.071-0.436-0.142-0.588c0.07-0.289,0.289-0.438,0.364-0.51C75.006,14.665,75.151,14.665,75.442,14.736 M76.318,15.835
	c0,0.294-0.148,0.66-0.514,1.024l-0.291,0.223c0-0.439,0.22-0.809,0.22-1.174C75.95,15.835,76.17,15.691,76.318,15.835
	 M77.336,16.715l-0.295,1.098c-0.361,0.289-0.871,0.146-1.308,0.146c0.585-0.146,1.021-0.806,1.308-1.243
	C77.117,16.643,77.19,16.715,77.336,16.715 M77.7,20.424c0,0.221-0.071,1.1-0.071,1.1c-0.148-0.512-0.512-1.026-0.949-1.026
	c-0.217-0.218-0.438-0.437-0.51-0.636c-0.22-0.221-0.437,0-0.728-0.221c-0.29,0-0.653,0-0.948,0.221v-0.221l0.512-0.588
	c0.508,0.073,1.164,0,1.313,0.365c0.361,0.223,0.723,0.443,0.799,0.57v0.217C77.262,20.279,77.553,20.354,77.7,20.424
	 M77.336,22.693l-0.509,0.512c-0.147-0.221,0-0.586-0.218-0.807c0-0.141,0.145-0.217,0.07-0.291
	c-0.07-0.147-0.946-0.439-0.946-0.439c-0.291-0.219-0.655-0.439-0.944-0.73c-0.295-0.074-0.514,0.074-0.879,0.146v-0.146
	c0.148-0.293,0.148-0.658,0.584-0.658c0.219,0,0.512,0,0.658,0.218c0.29,0,0.436,0.293,0.652,0.366
	c0.365,0.365,0.658,0.514,0.875,0.66c0,0.219,0.074,0.365,0.219,0.437C77.336,21.96,77.19,22.398,77.336,22.693 M76.241,23.789
	l-0.214,0.734l-0.514-1.318c-0.582-0.586-1.238-0.658-1.604-0.947c-0.29-0.076-0.29,0.141-0.434,0c0-0.15,0-0.369,0.214-0.59h0.44
	l0.435,0.221c0.224,0.219,0.731,0.219,0.731,0.658c0,0.072-0.074,0.146,0.146,0.438l0.728,0.221L76.241,23.789z M74.205,24.523
	c0,0.584-0.947,1.391-0.947,1.391c0-0.365,0.219-0.807,0.219-1.244c0,0-0.293-0.295-0.566-0.295
	c-0.212,0.148-0.212,0.295-0.288,0.512c-0.216,0.441-0.659,0.877-0.728,1.32l-0.071-0.074c0-0.734,0.071-1.977,0.507-2.488
	c0.368-0.439,0.65-0.439,1.071-0.512l0.366,0.072l-0.291,0.439C73.768,23.789,74.205,24.084,74.205,24.523 M71.676,24.084
	c0,0.291-0.072,0.586-0.22,0.803c-0.071-0.291-0.288-0.656-0.655-0.656c-0.291,0.584-0.367,0.801-0.072,1.684
	c-0.219,0.219-0.366,0.293-0.655,0.439c-0.146-0.295-0.146-0.805-0.146-1.1c0-0.511,0.072-1.023,0.219-1.465
	c0.216-0.219,0.363-0.584,0.582-0.805h0.8c-0.36,0-0.36,0.365-0.36,0.586C71.385,23.645,71.676,23.719,71.676,24.084 M69.78,24.887
	c-0.073,0-0.289-0.217-0.509-0.217c-0.219,0.438,0,0.729,0,1.244c0,0.219-0.072,0.439-0.072,0.439c-0.146,0-0.438-0.295-0.511-0.59
	v-1.168l0.655-0.807C69.78,24.084,69.928,24.523,69.78,24.887 M84.815,4.516c0.151-0.365,0.151-1.023-0.14-1.392
	c-0.151-0.291-0.513-0.439-0.875-0.727l-0.512,0.288c-0.291,0.148-0.439,0.439-0.439,0.808c0.509,0.216,1.02,0.802,1.238,1.242
	h0.219C84.524,4.516,84.676,4.735,84.815,4.516 M82.356,4.956c0-0.221-0.069-0.221-0.142-0.221c-0.367,0-0.367-0.584-0.654-0.439
	c-0.146,0-0.293-0.145-0.512,0c0,0.074,0,0.074,0.148,0.074c0.363,0,0.217,0.513,0.51,0.587H82.356z M83.51,5.835
	c0,0,0.139,0,0-0.074l-1.586-0.218c-0.144,0.218-0.51,0.218-0.51,0.437h-0.146c0.148,0.584,0.148,1.241,0.148,1.904
	c0.291,0.071,0.582,0.216,0.582,0.655c0.289,0.149,0.563,0.221,0.852,0.44c0.148-0.072,0.22-0.291,0.291-0.514
	C82.85,8.1,82.215,8.322,82.215,7.666L81.78,7.518c0-0.442,0-0.879-0.073-1.174l0.073-0.071c0,0.071,0.069,0.146,0.218,0.291
	c0.289,0,0.563,0.075,0.852-0.145c0.148-0.075,0.148-0.439,0.291-0.439C83.289,5.98,83.432,5.98,83.51,5.835 M79.885,4.295
	c-0.145-0.145-0.584,0.074-0.803,0.146c-0.289,0.074-0.511,0.293-0.511,0.514h0.806C79.447,4.735,79.74,4.442,79.885,4.295
	 M78.282,3.493c-0.071-0.734-0.873-0.808-1.241-1.096h-0.287C76.17,2.61,76.026,3.201,75.95,3.709c0.22,0.66,0.658,0.222,0.948,0.66
	C77.19,4.151,77.916,3.635,78.282,3.493 M82.561,10.223V9.856H81.85L81.78,9.93L82.561,10.223z M79.301,5.98
	c0-0.145-0.144-0.29-0.363-0.437h-1.602H77.19c0,0.292,0.219,0.437,0.438,0.437c0,0.293,0.217,0.364,0.287,0.439
	c0.221,0.145,0.295,0.145,0.514,0c0.217,0.145,0.287-0.146,0.363,0c0,0.439,0,0.657-0.076,1.023
	c-0.07,0.512-0.506,0.441-0.871,0.657c0,0.222-0.217,0.588,0,0.807c0.218-0.146,0.365-0.219,0.726-0.368
	c0-0.217,0.222-0.439,0.511-0.584C79.082,7.297,79.301,6.639,79.301,5.98 M78.717,9.856c-0.146-0.292-0.506,0-0.871-0.146
	c0,0.146,0,0.291,0.218,0.442C78.282,9.93,78.646,9.856,78.717,9.856"/>
</svg>
